<svg id="visual" viewBox="0 0 900 600" width="900" height="600" xmlns="http://www.w3.org/2000/svg" xmlns:xlink="http://www.w3.org/1999/xlink" version="1.1"><g transform="translate(455.3293835724569 296.0644642721189)"><path d="M106.1 -154C129.8 -128.7 136.3 -87.5 162 -44.2C187.7 -0.8 232.7 44.7 234.7 87.9C236.7 131.1 195.6 171.9 149.3 182.4C103.1 192.8 51.5 172.9 -3.6 177.9C-58.8 182.9 -117.6 212.8 -162.9 202C-208.2 191.3 -240.1 139.8 -244.8 88.3C-249.5 36.8 -227 -14.8 -205.8 -62.9C-184.7 -110.9 -164.9 -155.4 -130.9 -177.3C-96.8 -199.2 -48.4 -198.6 -3.6 -193.6C41.1 -188.6 82.3 -179.3 106.1 -154" fill="#cbe8ff"></path></g></svg>