<svg id="visual" viewBox="0 0 900 600" width="900" height="600" xmlns="http://www.w3.org/2000/svg" xmlns:xlink="http://www.w3.org/1999/xlink" version="1.1"><path d="M0 519L15 525.7C30 532.3 60 545.7 90 551.7C120 557.7 150 556.3 180 553.8C210 551.3 240 547.7 270 545C300 542.3 330 540.7 360 535.3C390 530 420 521 450 524.5C480 528 510 544 540 550.8C570 557.7 600 555.3 630 554.3C660 553.3 690 553.7 720 555.2C750 556.7 780 559.3 810 559.3C840 559.3 870 556.7 885 555.3L900 554L900 601L885 601C870 601 840 601 810 601C780 601 750 601 720 601C690 601 660 601 630 601C600 601 570 601 540 601C510 601 480 601 450 601C420 601 390 601 360 601C330 601 300 601 270 601C240 601 210 601 180 601C150 601 120 601 90 601C60 601 30 601 15 601L0 601Z" fill="#bddbff" stroke-linecap="round" stroke-linejoin="miter"></path></svg>