<svg id="visual" viewBox="0 0 900 600" width="900" height="600" xmlns="http://www.w3.org/2000/svg" xmlns:xlink="http://www.w3.org/1999/xlink" version="1.1"><path d="M0 570L15 562C30 554 60 538 90 535.7C120 533.3 150 544.7 180 541.8C210 539 240 522 270 522C300 522 330 539 360 547C390 555 420 554 450 544.3C480 534.7 510 516.3 540 521.7C570 527 600 556 630 555.2C660 554.3 690 523.7 720 514.5C750 505.3 780 517.7 810 524.5C840 531.3 870 532.7 885 533.3L900 534L900 601L885 601C870 601 840 601 810 601C780 601 750 601 720 601C690 601 660 601 630 601C600 601 570 601 540 601C510 601 480 601 450 601C420 601 390 601 360 601C330 601 300 601 270 601C240 601 210 601 180 601C150 601 120 601 90 601C60 601 30 601 15 601L0 601Z" fill="#bddbff" stroke-linecap="round" stroke-linejoin="miter"></path></svg>