<svg id="visual" viewBox="0 0 900 600" width="900" height="600" xmlns="http://www.w3.org/2000/svg" xmlns:xlink="http://www.w3.org/1999/xlink" version="1.1"><path d="M0 67L15 62.8C30 58.7 60 50.3 90 50.8C120 51.3 150 60.7 180 63.5C210 66.3 240 62.7 270 57.8C300 53 330 47 360 44.7C390 42.3 420 43.7 450 42C480 40.3 510 35.7 540 36C570 36.3 600 41.7 630 44.8C660 48 690 49 720 50.8C750 52.7 780 55.3 810 55.7C840 56 870 54 885 53L900 52L900 0L885 0C870 0 840 0 810 0C780 0 750 0 720 0C690 0 660 0 630 0C600 0 570 0 540 0C510 0 480 0 450 0C420 0 390 0 360 0C330 0 300 0 270 0C240 0 210 0 180 0C150 0 120 0 90 0C60 0 30 0 15 0L0 0Z" fill="#bddbff" stroke-linecap="round" stroke-linejoin="miter"></path></svg>