<svg id="visual" viewBox="0 0 900 600" width="900" height="600" xmlns="http://www.w3.org/2000/svg" xmlns:xlink="http://www.w3.org/1999/xlink" version="1.1"><path d="M0 54L16.7 51.8C33.3 49.7 66.7 45.3 100 46.3C133.3 47.3 166.7 53.7 200 55C233.3 56.3 266.7 52.7 300 44.7C333.3 36.7 366.7 24.3 400 29.7C433.3 35 466.7 58 500 63.7C533.3 69.3 566.7 57.7 600 57C633.3 56.3 666.7 66.7 700 62.2C733.3 57.7 766.7 38.3 800 36.3C833.3 34.3 866.7 49.7 883.3 57.3L900 65L900 0L883.3 0C866.7 0 833.3 0 800 0C766.7 0 733.3 0 700 0C666.7 0 633.3 0 600 0C566.7 0 533.3 0 500 0C466.7 0 433.3 0 400 0C366.7 0 333.3 0 300 0C266.7 0 233.3 0 200 0C166.7 0 133.3 0 100 0C66.7 0 33.3 0 16.7 0L0 0Z" fill="#bddbff" stroke-linecap="round" stroke-linejoin="miter"></path></svg>