<svg width="120" height="93" viewBox="0 0 120 93" fill="none" xmlns="http://www.w3.org/2000/svg">
<g filter="url(#filter0_d_251_1278)">
<path d="M29.28 71.568C27.84 74.928 26.112 77.712 23.904 79.728C19.584 83.952 16.512 84.432 13.152 84.432C10.368 84.432 8.256 83.28 6.72 81.072C4.896 78.192 4.8 73.584 6.528 67.248C8.256 61.008 11.808 51.6 17.28 39.12C18.72 36.048 19.776 33.648 20.448 31.824C21.888 27.984 24.096 22.512 27.168 15.312L32.256 3.312C33.12 1.296 34.56 0.335999 36.768 0.335999C37.152 0.335999 37.728 0.431997 38.496 0.719999C40.896 1.776 42.144 4.56 41.088 6.96L36 19.152C33.024 25.968 30.816 31.248 29.376 35.184C28.32 38.256 26.88 41.424 25.248 44.784C26.016 44.496 26.784 44.304 27.552 44.304C28.992 44.304 30.912 43.056 33.312 40.56C35.808 38.064 37.632 35.184 38.88 31.824C39.648 29.712 41.184 28.656 43.392 28.656C43.872 28.656 44.448 28.752 45.024 28.944C47.424 29.808 48.768 32.496 47.904 35.088C46.56 38.832 44.448 42.288 41.664 45.648C38.88 48.912 36 51.216 32.832 52.656C32.832 59.472 31.68 65.712 29.28 71.568ZM23.136 51.024C23.04 50.928 22.848 50.448 22.848 50.352C17.76 62.352 15.072 70.416 14.88 74.544C16.032 74.16 17.088 73.392 17.952 72.144C19.968 69.552 21.504 66 22.368 61.296C23.232 56.592 23.424 53.232 23.136 51.024ZM69.8243 28.848C72.2243 29.712 73.5683 32.4 72.7043 34.992C70.8803 39.888 67.8083 44.208 63.2963 48.048C58.8803 51.888 54.7523 53.808 50.9123 53.808C47.5523 53.808 45.0563 52.464 43.2322 49.776C40.1603 45.456 39.9682 39.504 42.7523 31.824C44.8643 26.256 46.7843 21.744 48.5123 18.288C49.3763 16.464 50.8163 15.504 52.9283 15.504C53.6003 15.504 54.2723 15.6 54.8483 15.888C57.2483 16.944 58.3043 19.824 57.2483 22.224C57.2483 21.936 53.3123 31.056 51.7763 35.088C50.2403 39.312 49.9523 42.384 51.0083 44.208C52.6403 44.112 54.8483 42.768 57.6323 40.176C60.5123 37.584 62.5283 34.8 63.6803 31.728C64.4483 29.616 65.9843 28.56 68.1923 28.56C68.6723 28.56 69.2483 28.656 69.8243 28.848ZM56.1923 12.048C53.7923 10.992 52.5443 8.208 53.6003 5.808L54.6563 3.312C55.5203 1.296 56.9603 0.24 59.0723 0.24C59.5523 0.24 60.1283 0.335999 60.8963 0.623995C63.4883 1.68 64.5443 4.368 63.4883 6.96L62.4323 9.456C61.7603 11.472 60.2243 12.432 58.0163 12.432C57.3443 12.432 56.6723 12.336 56.1923 12.048ZM112.139 29.04C114.539 29.904 115.883 32.592 115.019 35.184C113.195 40.08 110.507 44.496 106.859 48.24C103.211 51.984 99.4665 53.904 95.6265 53.904C92.2665 53.904 89.5785 52.464 87.7545 49.584C87.6585 49.488 87.5625 49.296 87.5625 49.2C84.0105 52.368 80.5545 54 77.1945 54C73.1625 54 70.0905 52.464 67.9785 49.488C65.0025 45.264 64.8105 39.408 67.4025 32.016C69.2265 26.928 72.1065 22.512 75.8505 18.768C79.5945 15.024 83.8185 13.2 88.5225 13.2C92.0745 13.2 94.7625 14.736 96.5865 17.808C98.0265 20.112 97.2585 23.184 94.9545 24.432C94.2825 24.912 93.4185 25.104 92.5545 25.104C90.7305 25.104 89.2905 24.336 88.4265 22.8C86.1225 22.896 83.8185 24.144 81.6105 26.64C79.4025 29.136 77.6745 32.016 76.4265 35.28C74.8905 39.504 75.0825 43.536 75.8505 43.92C75.9465 44.208 76.4265 44.4 77.1945 44.4C78.4425 44.4 80.0745 43.248 82.2825 40.848C84.4905 38.448 86.3145 35.472 87.5625 31.92C88.8105 28.176 90.1545 26.352 93.2265 26.352C93.8985 26.352 94.5705 26.448 95.1465 26.736C97.5465 27.888 98.6025 30.672 97.4505 33.072C96.2025 35.664 95.5305 38.064 95.3385 40.464C95.1465 42.864 95.2425 44.112 95.7225 44.304C97.0665 44.208 98.7945 42.96 100.907 40.56C103.115 38.16 104.747 35.28 105.995 31.92C106.859 29.808 108.299 28.752 110.507 28.752C110.987 28.752 111.563 28.848 112.139 29.04Z" fill="url(#paint0_linear_251_1278)"/>
</g>
<defs>
<filter id="filter0_d_251_1278" x="0.799805" y="0.23999" width="119.083" height="92.192" filterUnits="userSpaceOnUse" color-interpolation-filters="sRGB">
<feFlood flood-opacity="0" result="BackgroundImageFix"/>
<feColorMatrix in="SourceAlpha" type="matrix" values="0 0 0 0 0 0 0 0 0 0 0 0 0 0 0 0 0 0 127 0" result="hardAlpha"/>
<feOffset dy="4"/>
<feGaussianBlur stdDeviation="2"/>
<feComposite in2="hardAlpha" operator="out"/>
<feColorMatrix type="matrix" values="0 0 0 0 0 0 0 0 0 0 0 0 0 0 0 0 0 0 0.25 0"/>
<feBlend mode="normal" in2="BackgroundImageFix" result="effect1_dropShadow_251_1278"/>
<feBlend mode="normal" in="SourceGraphic" in2="effect1_dropShadow_251_1278" result="shape"/>
</filter>
<linearGradient id="paint0_linear_251_1278" x1="37.1478" y1="-22.1609" x2="86.2767" y2="86.1649" gradientUnits="userSpaceOnUse">
<stop stop-color="#95A6CC"/>
<stop offset="1" stop-color="#476FD4"/>
</linearGradient>
</defs>
</svg>
