<svg id="visual" viewBox="0 0 900 600" width="900" height="600" xmlns="http://www.w3.org/2000/svg" xmlns:xlink="http://www.w3.org/1999/xlink" version="1.1"><path d="M0 234L21.5 218.7C43 203.3 86 172.7 128.8 157.7C171.7 142.7 214.3 143.3 257.2 148.3C300 153.3 343 162.7 385.8 170.8C428.7 179 471.3 186 514.2 179.5C557 173 600 153 642.8 145C685.7 137 728.3 141 771.2 140.3C814 139.7 857 134.3 878.5 131.7L900 129L900 0L878.5 0C857 0 814 0 771.2 0C728.3 0 685.7 0 642.8 0C600 0 557 0 514.2 0C471.3 0 428.7 0 385.8 0C343 0 300 0 257.2 0C214.3 0 171.7 0 128.8 0C86 0 43 0 21.5 0L0 0Z" fill="#cbe8ff"></path><path d="M0 126L21.5 128.5C43 131 86 136 128.8 135.8C171.7 135.7 214.3 130.3 257.2 128.3C300 126.3 343 127.7 385.8 131.2C428.7 134.7 471.3 140.3 514.2 135.2C557 130 600 114 642.8 105.7C685.7 97.3 728.3 96.7 771.2 100.7C814 104.7 857 113.3 878.5 117.7L900 122L900 0L878.5 0C857 0 814 0 771.2 0C728.3 0 685.7 0 642.8 0C600 0 557 0 514.2 0C471.3 0 428.7 0 385.8 0C343 0 300 0 257.2 0C214.3 0 171.7 0 128.8 0C86 0 43 0 21.5 0L0 0Z" fill="#8cc5fd"></path><path d="M0 135L21.5 124.2C43 113.3 86 91.7 128.8 90.5C171.7 89.3 214.3 108.7 257.2 119.3C300 130 343 132 385.8 125C428.7 118 471.3 102 514.2 102.3C557 102.7 600 119.3 642.8 116C685.7 112.7 728.3 89.3 771.2 79.7C814 70 857 74 878.5 76L900 78L900 0L878.5 0C857 0 814 0 771.2 0C728.3 0 685.7 0 642.8 0C600 0 557 0 514.2 0C471.3 0 428.7 0 385.8 0C343 0 300 0 257.2 0C214.3 0 171.7 0 128.8 0C86 0 43 0 21.5 0L0 0Z" fill="#51a0fa"></path><path d="M0 73L21.5 73.7C43 74.3 86 75.7 128.8 78.2C171.7 80.7 214.3 84.3 257.2 80C300 75.7 343 63.3 385.8 56C428.7 48.7 471.3 46.3 514.2 46.3C557 46.3 600 48.7 642.8 47.8C685.7 47 728.3 43 771.2 48.7C814 54.3 857 69.7 878.5 77.3L900 85L900 0L878.5 0C857 0 814 0 771.2 0C728.3 0 685.7 0 642.8 0C600 0 557 0 514.2 0C471.3 0 428.7 0 385.8 0C343 0 300 0 257.2 0C214.3 0 171.7 0 128.8 0C86 0 43 0 21.5 0L0 0Z" fill="#1778f2"></path></svg>