<svg width="1728" height="550" viewBox="0 0 1728 550" fill="none" xmlns="http://www.w3.org/2000/svg">
<path d="M752.789 -206.353C852.371 -211.991 972.081 -169.496 1030.46 -73.9538C1088.42 21.294 1085.34 169.162 1016.98 249.609C948.315 330.483 833.162 408.422 698.529 399.251C564.193 389.653 410.801 293.241 379.16 218.138C347.945 143.329 420.104 25.6392 496.484 -60.0106C572.735 -146.383 652.911 -200.287 752.789 -206.353Z" fill="#E3EFFF"/>
<path d="M1916.09 -46.9996C2159.59 -45.9996 1742.42 166.667 1584.59 181C1426.75 195.334 1166.59 -86.9996 862.588 73.0005C605.588 225 445.588 378 151.588 347C-164.965 313.622 -240.078 39.1669 -3.91171 -46.9997" fill="#9DB9E7"/>
<path d="M1918.42 -59.6176C2155.64 -58.9326 1749.24 86.7245 1595.48 96.5415C1441.72 106.358 996.242 -77.0851 700.088 32.5002C449.721 136.606 334.389 288.232 47.9771 267C-260.406 244.14 -182.094 -0.601447 47.9771 -59.6177" fill="#93B4EA" fill-opacity="0.81"/>
</svg>
